<?xml version="1.0" encoding="UTF-8"?>
<svg width="62px" height="58px" viewBox="0 0 62 58" version="1.1" xmlns="http://www.w3.org/2000/svg" xmlns:xlink="http://www.w3.org/1999/xlink">
    <!-- Generator: Sketch 52.3 (67297) - http://www.bohemiancoding.com/sketch -->
    <title>chat</title>
    <desc>Created with Sketch.</desc>
    <g id="Welcome" stroke="none" stroke-width="1" fill="none" fill-rule="evenodd">
        <g id="Desktop" transform="translate(-571.000000, -8562.000000)" stroke="#FFFFFF">
            <g id="FAQs" transform="translate(-2.000000, 8328.000000)">
                <g id="chat" transform="translate(574.000000, 235.000000)">
                    <path d="M30,0 C13.4321432,0 0,12.5359809 0,28.000442 C0,43.4640191 13.4321432,56 30,56 C37.0480159,56 43.524008,53.7256326 48.644758,49.9273594 L55.1898854,51.5104888 L53.763614,45.0807381 C57.6702339,40.3534481 60,34.4319606 60,28.000442 C60,12.5359809 46.5678568,0 30,0" id="Stroke-1"></path>
                    <path d="M32.9032258,28.0004586 C32.9032258,26.5036931 31.6039487,25.2903226 30,25.2903226 C28.3960513,25.2903226 27.0967742,26.5036931 27.0967742,28.0004586 C27.0967742,29.4963069 28.3960513,30.7096774 30,30.7096774 C31.6039487,30.7096774 32.9032258,29.4963069 32.9032258,28.0004586 Z" id="Stroke-3"></path>
                    <path d="M44.516129,28.0004586 C44.516129,26.5036931 43.2160892,25.2903226 41.6124119,25.2903226 C40.0097173,25.2903226 38.7096774,26.5036931 38.7096774,28.0004586 C38.7096774,29.4963069 40.0097173,30.7096774 41.6124119,30.7096774 C43.2160892,30.7096774 44.516129,29.4963069 44.516129,28.0004586 Z" id="Stroke-5"></path>
                    <path d="M19.3548387,28.0004586 C19.3548387,26.5036931 18.0547989,25.2903226 16.4511216,25.2903226 C14.8474443,25.2903226 13.5483871,26.5036931 13.5483871,28.0004586 C13.5483871,29.4963069 14.8474443,30.7096774 16.4511216,30.7096774 C18.0547989,30.7096774 19.3548387,29.4963069 19.3548387,28.0004586 Z" id="Stroke-7"></path>
                </g>
            </g>
        </g>
    </g>
</svg>