<?xml version="1.0" encoding="UTF-8"?>
<svg width="27px" height="27px" viewBox="0 0 27 27" version="1.1" xmlns="http://www.w3.org/2000/svg" xmlns:xlink="http://www.w3.org/1999/xlink">
    <!-- Generator: Sketch 52.3 (67297) - http://www.bohemiancoding.com/sketch -->
    <title>circle-3</title>
    <desc>Created with Sketch.</desc>
    <g id="Welcome" stroke="none" stroke-width="1" fill="none" fill-rule="evenodd">
        <g id="Desktop" transform="translate(-964.000000, -1770.000000)">
            <g id="How-it-works" transform="translate(-1.000000, 1499.000000)">
                <g id="Numbers" transform="translate(300.000000, 264.000000)">
                    <g id="circle-3" transform="translate(659.000000, 0.000000)">
                        <circle id="Oval-Copy-3" fill="#FFE6E5" fill-rule="nonzero" cx="19.5" cy="20.5" r="13.5"></circle>
                        <path d="M19.2275,19.485 L18.5075,18.27 L21.3725,15.63 L16.7225,15.63 L16.7225,14.28 L23.3225,14.28 L23.3225,15.6 L20.5475,18.165 C21.3375039,18.165 22.034997,18.4249974 22.64,18.945 C23.245003,19.4650026 23.5475,20.1899954 23.5475,21.12 C23.5475,21.9800043 23.2325031,22.7149969 22.6025,23.325 C21.9724968,23.935003 21.1125055,24.24 20.0225,24.24 C18.9524946,24.24 18.0950032,23.942503 17.45,23.3475 C16.8049968,22.752497 16.4575002,22.0300043 16.4075,21.18 L17.8475,20.85 C17.8775001,21.4800032 18.094998,21.9874981 18.5,22.3725 C18.905002,22.7575019 19.407497,22.95 20.0075,22.95 C20.6475032,22.95 21.1499982,22.7775017 21.515,22.4325 C21.8800018,22.0874983 22.0625,21.6600026 22.0625,21.15 C22.0625,20.559997 21.8675019,20.1100015 21.4775,19.8 C21.0874981,19.4899985 20.6225027,19.335 20.0825,19.335 C19.7924986,19.335 19.5075014,19.3849995 19.2275,19.485 Z" id="3" fill="#FD555C"></path>
                    </g>
                </g>
            </g>
        </g>
    </g>
</svg>