<?xml version="1.0" encoding="UTF-8"?>
<svg width="27px" height="27px" viewBox="0 0 27 27" version="1.1" xmlns="http://www.w3.org/2000/svg" xmlns:xlink="http://www.w3.org/1999/xlink">
    <!-- Generator: Sketch 52.3 (67297) - http://www.bohemiancoding.com/sketch -->
    <title>circle-2</title>
    <desc>Created with Sketch.</desc>
    <g id="Welcome" stroke="none" stroke-width="1" fill="none" fill-rule="evenodd">
        <g id="Desktop" transform="translate(-633.000000, -1771.000000)">
            <g id="How-it-works" transform="translate(-1.000000, 1499.000000)">
                <g id="Numbers" transform="translate(300.000000, 264.000000)">
                    <g id="circle-2" transform="translate(328.000000, 2.000000)">
                        <circle id="Oval-Copy" fill="#FFE6E5" fill-rule="nonzero" cx="19.5" cy="19.5" r="13.5"></circle>
                        <path d="M18.1475,17.775 L16.6775,17.595 C16.6674999,17.5049996 16.6625,17.3750008 16.6625,17.205 C16.6625,16.3349956 16.9674969,15.5925031 17.5775,14.9775 C18.1875031,14.3624969 19.0024949,14.055 20.0225,14.055 C21.032505,14.055 21.8324971,14.3424971 22.4225,14.9175 C23.0125029,15.4925029 23.3075,16.1999958 23.3075,17.04 C23.3075,18.2700062 22.6975061,19.2699962 21.4775,20.04 L19.5575,21.27 C18.8674965,21.7100022 18.4725005,22.1649977 18.3725,22.635 L23.3675,22.635 L23.3675,24 L16.5575,24 C16.5775001,23.1799959 16.7649982,22.4600031 17.12,21.84 C17.4750018,21.2199969 18.0574959,20.6500026 18.8675,20.13 L20.4875,19.08 C21.3775044,18.5099972 21.8225,17.8350039 21.8225,17.055 C21.8225,16.5749976 21.6625016,16.1700017 21.3425,15.84 C21.0224984,15.5099984 20.5725029,15.345 19.9925,15.345 C19.382497,15.345 18.9175016,15.5299982 18.5975,15.9 C18.2774984,16.2700018 18.1175,16.749997 18.1175,17.34 C18.1175,17.4300005 18.1274999,17.574999 18.1475,17.775 Z" id="2" fill="#FD555C"></path>
                    </g>
                </g>
            </g>
        </g>
    </g>
</svg>