<?xml version="1.0" encoding="UTF-8"?>
<svg width="272px" height="252px" viewBox="0 0 272 252" version="1.1" xmlns="http://www.w3.org/2000/svg" xmlns:xlink="http://www.w3.org/1999/xlink">
    <!-- Generator: Sketch 52.3 (67297) - http://www.bohemiancoding.com/sketch -->
    <title>Clouds</title>
    <desc>Created with Sketch.</desc>
    <g id="Welcome" stroke="none" stroke-width="1" fill="none" fill-rule="evenodd" stroke-linecap="round" stroke-linejoin="round">
        <g id="Desktop" transform="translate(0.000000, -5102.000000)" stroke="#000000" stroke-width="4">
            <g id="Flights" transform="translate(-91.000000, 4737.000000)">
                <g id="Group" transform="translate(0.000000, 354.000000)">
                    <g id="Clouds" transform="translate(180.500000, 137.000000) scale(-1, 1) translate(-180.500000, -137.000000) translate(0.000000, 13.000000)">
                        <path d="M332.049668,161.528761 C333.250517,155.687231 333.88993,149.638187 333.88993,143.443883 C333.88993,94.0450862 293.762868,54 244.262948,54 C205.466696,54 172.523932,78.6527076 160.05278,113.079342 C154.204491,110.646236 147.794766,109.292205 141.057537,109.292205 C113.791513,109.292205 91.6875785,131.350983 91.6875785,158.566493 C91.6875785,160.159166 91.7759526,161.736275 91.9267085,163.292633 C77.1994165,170.638642 67,185.81313 67,203.280652 C67,227.881481 87.1649014,248 111.810892,248 L316.189108,248 C340.835099,248 361,227.881481 361,203.280652 C361,184.26196 348.918734,167.961706 332.049668,161.528761 Z" id="Stroke-1"></path>
                        <path d="M260,54.6244317 C246.387516,22.5262876 214.517555,0 177.373212,0 C138.548765,0 105.586476,24.6481789 93.1079324,59.0757341 C87.2613784,56.642563 80.8426528,55.2833075 74.106632,55.2833075 C46.8192458,55.2833075 24.7022107,77.3478633 24.7022107,104.558913 C24.7022107,106.156817 24.7906372,107.733968 24.9414824,109.290367 C10.2054616,116.636573 0,131.811467 0,149.284645 C0,173.875755 20.1768531,194 44.8374512,194 L65.6905072,194" id="Stroke-3"></path>
                    </g>
                </g>
            </g>
        </g>
    </g>
</svg>