<?xml version="1.0" encoding="UTF-8"?>
<svg width="266px" height="278px" viewBox="0 0 266 278" version="1.1" xmlns="http://www.w3.org/2000/svg" xmlns:xlink="http://www.w3.org/1999/xlink">
    <!-- Generator: Sketch 52.3 (67297) - http://www.bohemiancoding.com/sketch -->
    <title>Clouds + Sun</title>
    <desc>Created with Sketch.</desc>
    <g id="Welcome" stroke="none" stroke-width="1" fill="none" fill-rule="evenodd" stroke-linecap="round" stroke-linejoin="round">
        <g id="Desktop" transform="translate(-1174.000000, -5089.000000)" stroke="#000000" stroke-width="4">
            <g id="Flights" transform="translate(-91.000000, 4737.000000)">
                <g id="Group" transform="translate(0.000000, 354.000000)">
                    <g id="Clouds-+-Sun" transform="translate(1267.000000, 0.000000)">
                        <path d="M98.617699,197.108895 C84.7710884,184.251648 76.108895,165.893363 76.108895,145.516214 C76.108895,106.631969 107.637096,75.108895 146.522705,75.108895 C166.898208,75.108895 185.254517,83.7597589 198.108895,97.5941968" id="Stroke-1" transform="translate(137.108895, 136.108895) rotate(3.000000) translate(-137.108895, -136.108895) "></path>
                        <path d="M150,41 L150,0" id="Stroke-3"></path>
                        <path d="M95,56 L75,20" id="Stroke-5"></path>
                        <path d="M56,95 L20,75" id="Stroke-7"></path>
                        <path d="M41,149 L0,149" id="Stroke-9"></path>
                        <path d="M56,202 L20,222" id="Stroke-11"></path>
                        <path d="M222,20 L202,56" id="Stroke-13"></path>
                        <path d="M328.526726,191.540313 C329.666307,185.969782 330.273097,180.201364 330.273097,174.294424 C330.273097,127.187325 292.193334,89 245.21892,89 C208.402069,89 177.140058,112.509025 165.30519,145.338548 C159.755282,143.013371 153.672584,141.727103 147.284024,141.727103 C121.404191,141.727103 100.428008,162.762535 100.428008,188.71547 C100.428008,190.234256 100.511873,191.733253 100.654938,193.222356 C86.6790381,200.227571 77,214.698088 77,231.355261 C77,254.809868 96.1360799,274 119.524622,274 L313.475378,274 C336.86392,274 356,254.809868 356,231.355261 C356,213.21888 344.535125,197.669876 328.526726,191.540313 Z" id="Stroke-15"></path>
                    </g>
                </g>
            </g>
        </g>
    </g>
</svg>