<?xml version="1.0" encoding="UTF-8"?>
<svg width="45px" height="45px" viewBox="0 0 45 45" version="1.1" xmlns="http://www.w3.org/2000/svg" xmlns:xlink="http://www.w3.org/1999/xlink">
    <!-- Generator: Sketch 52.3 (67297) - http://www.bohemiancoding.com/sketch -->
    <title>Earth icon</title>
    <desc>Created with Sketch.</desc>
    <g id="Welcome" stroke="none" stroke-width="1" fill="none" fill-rule="evenodd">
        <g id="Desktop" transform="translate(-700.000000, -1065.000000)" stroke="#FD555C">
            <g id="Top-Overview" transform="translate(0.000000, 952.000000)">
                <g id="Earth-icon" transform="translate(701.000000, 114.000000)">
                    <path d="M43,21.5 C43,33.3736087 33.3736087,43 21.5,43 C9.6263913,43 0,33.3736087 0,21.5 C0,9.6263913 9.6263913,0 21.5,0 C33.3736087,0 43,9.6263913 43,21.5 Z" id="Stroke-1"></path>
                    <path d="M8.67693147,20.3521187 C11.0702538,16.9965174 20.0056916,17.4433514 21.544256,20.3521187 C23.3824452,23.8294256 19.1509336,22.7671084 17.8678775,27.3067326 C16.2116691,33.1694721 19.0645387,36 17.8678775,36 C12.3533099,36 12.9488832,31.1248156 10.5151207,27.3067326 C8.44899601,24.0641438 7.12733796,22.5254355 8.67693147,20.3521187 Z" id="Stroke-3"></path>
                    <path d="M42,20.2351375 C41.3696161,20.2351375 29.8438373,15.2060781 29.8438373,20.2351375 C29.8438373,22.4312334 27.4751222,23.7225377 28.1072426,26.823425 C28.902603,30.7346717 33.3083437,31.0553017 33.3170266,33.4117125 C33.3274462,36.4093833 29.3662738,39.404858 33.3170266,40" id="Stroke-5"></path>
                    <path d="M28.1944537,0 C27.3647813,3.79830106 29.3352532,6.073521 31.3575796,8.27352706 C33.7774573,10.9060129 32.8440759,14.6102966 34.8145477,13.9145682 C37.9431039,12.8239669 39.9654303,11.6205448 40,12.0342212" id="Stroke-7"></path>
                    <path d="M2,12.1739507 C6.1465948,15.2515708 10.9443374,13.8696092 12.7332048,12.1739507 C14.8583794,10.1595085 20.8904405,8.98441717 19.8886747,7.08697536 C18.0998073,3.69565845 11.6062183,3.05978653 12.7332048,2" id="Stroke-9"></path>
                </g>
            </g>
        </g>
    </g>
</svg>