<?xml version="1.0" encoding="UTF-8"?>
<svg width="110px" height="110px" viewBox="0 0 110 110" version="1.1" xmlns="http://www.w3.org/2000/svg" xmlns:xlink="http://www.w3.org/1999/xlink">
    <!-- Generator: Sketch 52.3 (67297) - http://www.bohemiancoding.com/sketch -->
    <title>group</title>
    <desc>Created with Sketch.</desc>
    <g id="Welcome" stroke="none" stroke-width="1" fill="none" fill-rule="evenodd">
        <g id="Desktop" transform="translate(-1133.000000, -2344.000000)">
            <g id="group" transform="translate(1133.000000, 2344.000000)">
                <path d="M109.784654,54.9289231 C109.784654,85.0731538 85.3477308,109.510077 55.2026538,109.510077 C25.0584231,109.510077 0.6215,85.0731538 0.6215,54.9289231 C0.6215,24.7846923 25.0584231,0.347769231 55.2026538,0.347769231 C85.3477308,0.347769231 109.784654,24.7846923 109.784654,54.9289231" id="Fill-9" fill="#FFFFFF"></path>
                <path d="M14,55.5 C14,69.0314895 24.9689734,80 38.5,80 C52.0310266,80 63,69.0314895 63,55.5 C63,41.9685105 52.0310266,31 38.5,31 C24.9689734,31 14,41.9685105 14,55.5 Z" id="Stroke-64" stroke="#191919"></path>
                <path d="M47,55.5 C47,69.0314895 57.969161,80 71.4995809,80 C85.030839,80 96,69.0314895 96,55.5 C96,41.9685105 85.030839,31 71.4995809,31 C57.969161,31 47,41.9685105 47,55.5 Z" id="Stroke-66" stroke="#191919"></path>
                <path d="M23,55 C23,63.8364924 30.2754374,71 39.25,71 C48.2245626,71 55.4991538,63.8364924 55.4991538,55 L55.5,55 C55.5,63.8364924 62.7754374,71 71.75,71 C80.7245626,71 88,63.8364924 88,55" id="Stroke-68" stroke="#191919"></path>
            </g>
        </g>
    </g>
</svg>