<?xml version="1.0" encoding="UTF-8"?>
<svg width="109px" height="109px" viewBox="0 0 109 109" version="1.1" xmlns="http://www.w3.org/2000/svg" xmlns:xlink="http://www.w3.org/1999/xlink">
    <!-- Generator: Sketch 52.3 (67297) - http://www.bohemiancoding.com/sketch -->
    <title>like</title>
    <desc>Created with Sketch.</desc>
    <g id="Welcome" stroke="none" stroke-width="1" fill="none" fill-rule="evenodd">
        <g id="Desktop" transform="translate(-198.000000, -2474.000000)">
            <g id="like" transform="translate(198.000000, 2474.000000)">
                <path d="M109,54.5 C109,84.5994109 84.5994109,109 54.5,109 C24.4005891,109 0,84.5994109 0,54.5 C0,24.4005891 24.4005891,0 54.5,0 C84.5994109,0 109,24.4005891 109,54.5" id="Fill-1" fill="#FFFFFF"></path>
                <path d="M72.30563,59.6541759 C72.30563,58.7208675 71.9328649,57.806362 71.4414927,57.3371438 C71.7380104,57.1140728 72.0082651,56.8388665 72.2437849,56.5149435 C72.9520387,55.5397559 73.1799337,54.5782431 72.8546114,53.5398093 C72.419154,52.1501028 71.0373814,51.4449935 68.7474174,51.4449935 L60.2229564,51.4449935 C60.4610178,50.3638258 60.7321197,48.3843914 60.7321197,44.9810635 C60.7321197,41.2811624 58.4862097,40 56.3877115,40 C54.0443743,40 53.8410478,42.4571993 53.6063752,44.2520232 C53.1209333,47.952779 51.6146233,51.3090997 49.616941,54.4184183 C49.4585159,54.6645656 48.7095968,55.4431773 48.7095968,55.7320584 C48.7095968,55.0337865 48.0132038,54.1594509 46.8279801,54.1594509 L37.9849744,54.1594509 C36.888706,54.1594509 36,55.0568628 36,56.1636708 L36,69.9966347 C36,71.1034427 36.888706,72 37.9849744,72 L46.8279801,72 C47.7039781,72 48.4461196,71.4273657 48.7095968,70.6342245 C49.3602414,70.9359259 50.0693424,71.0957506 50.7911512,71.0957506 L66.7946364,71.0957506 C69.2786077,71.0957506 70.7027399,69.8231351 70.7027399,67.6052456 C70.7027399,66.8420181 70.4214717,66.3377581 70.1478282,66.0283646 C70.9433429,65.533506 71.6007651,64.7848081 71.6007651,63.7267167 C71.6007651,62.9310115 71.3059417,62.3310275 70.900136,61.891723 C71.6685405,61.4703667 72.30563,60.7669667 72.30563,59.6541759 Z" id="Stroke-122" stroke="#191919"></path>
                <path d="M49,56 L49,71" id="Stroke-123" stroke="#191919"></path>
                <path d="M43,69 L46,69" id="Stroke-124" stroke="#191919" stroke-linecap="round"></path>
            </g>
        </g>
    </g>
</svg>