<?xml version="1.0" encoding="UTF-8"?>
<svg width="12px" height="16px" viewBox="0 0 12 16" version="1.1" xmlns="http://www.w3.org/2000/svg" xmlns:xlink="http://www.w3.org/1999/xlink">
    <!-- Generator: Sketch 52.3 (67297) - http://www.bohemiancoding.com/sketch -->
    <title>Location icon</title>
    <desc>Created with Sketch.</desc>
    <g id="Welcome" stroke="none" stroke-width="1" fill="none" fill-rule="evenodd">
        <g id="Desktop" transform="translate(-289.000000, -6447.000000)" stroke="#FFFFFF">
            <g id="Accommodations" transform="translate(-1.000000, 5722.000000)">
                <g id="Location-icon" transform="translate(291.000000, 726.000000)">
                    <path d="M10,4.91536287 C10,2.20065975 7.76151169,0 5.00014381,0 C2.23877592,0 0,2.20065975 0,4.91536287 C0,7.63006598 5.00014381,15 5.00014381,15 C5.00014381,15 10,7.63006598 10,4.91536287 Z" id="Stroke-1"></path>
                    <path d="M7,4.99985695 C7,3.89521493 6.10449896,3 5.00014305,3 C3.89521493,3 3,3.89521493 3,4.99985695 C3,6.10449896 3.89521493,7 5.00014305,7 C6.10449896,7 7,6.10449896 7,4.99985695 Z" id="Stroke-3"></path>
                </g>
            </g>
        </g>
    </g>
</svg>