<?xml version="1.0" encoding="UTF-8"?>
<svg width="64px" height="60px" viewBox="0 0 64 60" version="1.1" xmlns="http://www.w3.org/2000/svg" xmlns:xlink="http://www.w3.org/1999/xlink">
    <!-- Generator: Sketch 52.3 (67297) - http://www.bohemiancoding.com/sketch -->
    <title>phone</title>
    <desc>Created with Sketch.</desc>
    <g id="Welcome" stroke="none" stroke-width="1" fill="none" fill-rule="evenodd" stroke-linecap="round" stroke-linejoin="round">
        <g id="Desktop" transform="translate(-777.000000, -8559.000000)" stroke="#FFFFFF">
            <g id="FAQs" transform="translate(-2.000000, 8328.000000)">
                <g id="phone" transform="translate(779.000000, 231.000000)">
                    <path d="M47.7116121,45.2316364 L46.2725818,43.8825455 C44.8859152,42.5825455 43.0434909,41.8661818 41.084703,41.8661818 C39.1239758,41.8661818 37.2815515,42.5825455 35.8948848,43.8825455 C34.1261576,45.5407273 31.2500364,45.5407273 29.4832485,43.8825455 L17.1933091,32.3607273 C16.3341576,31.5570909 15.8628848,30.4916364 15.8628848,29.3552727 C15.8628848,28.2207273 16.3341576,27.1516364 17.1933091,26.348 C20.0519758,23.6661818 20.0519758,19.3007273 17.1933091,16.6207273 L15.7523394,15.2698182 C14.3230061,13.9298182 12.4437333,13.2589091 10.5644606,13.2589091 C8.68518788,13.2589091 6.80591515,13.9298182 5.37658182,15.2698182 L5.32421818,15.3207273 C-0.482327273,20.7625455 -0.482327273,29.6170909 5.32421818,35.0589091 L26.6032485,55.0098182 C32.4078545,60.4516364 41.852703,60.4516364 47.6592485,55.0098182 L47.7116121,54.9589091 C50.5722182,52.2770909 50.5722182,47.9134545 47.7116121,45.2316364 Z" id="Stroke-1"></path>
                    <path d="M55.6489697,47.3587273 C65.2082424,38.3969091 66.1527273,19.8132727 54.5086061,8.89872727 C42.8644848,-2.01763636 23.0438788,-1.13218182 13.4846061,7.82963636" id="Stroke-3"></path>
                    <path d="M22.7077818,14.0063636 C27.8045091,9.22636364 39.4622061,9.61181818 46.6030545,16.31 C53.7458424,23.0045455 54.1569939,33.9336364 49.0602667,38.7118182" id="Stroke-5"></path>
                </g>
            </g>
        </g>
    </g>
</svg>