<?xml version="1.0" encoding="UTF-8"?>
<svg width="336px" height="257px" viewBox="0 0 336 257" version="1.1" xmlns="http://www.w3.org/2000/svg" xmlns:xlink="http://www.w3.org/1999/xlink">
    <!-- Generator: Sketch 52.3 (67297) - http://www.bohemiancoding.com/sketch -->
    <title>Piggy bank</title>
    <desc>Created with Sketch.</desc>
    <g id="Welcome" stroke="none" stroke-width="1" fill="none" fill-rule="evenodd" stroke-linecap="round" stroke-linejoin="round">
        <g id="Desktop" transform="translate(-201.000000, -2947.000000)" stroke="#000000" stroke-width="4">
            <g id="Payment-plans" transform="translate(-1.000000, 2809.000000)">
                <g id="Piggy-bank" transform="translate(370.000000, 266.500000) scale(-1, 1) translate(-370.000000, -266.500000) translate(204.000000, 140.000000)">
                    <path d="M291,125.872018 C291,69.5825495 236.629056,28.4224301 171.810525,23.9561634 C161.041951,23.2100585 137.485696,23.3862222 116.51804,27.5416119 C96.192357,-8.48903644 43.0225235,1.17923934 43.0225235,1.17923934 C65.5744022,16.246413 68.8774552,36.8161101 68.2354825,50.0076589 C52.8799103,61.7898985 41.0655423,76.908885 34.4801452,94.0692973 L0,94.0692973 L0,157.674739 L34.500854,157.674739 C41.345111,175.415455 53.677199,191.011119 69.8507686,202.95916 L61.587959,238.637481 L123.507259,253 L129.637062,226.502914 C135.528715,227.269744 165.670367,227.787872 171.810525,227.787872 C177.961038,227.787872 183.94588,227.269744 189.837532,226.502914 L195.97769,253 L257.886635,238.637481 L249.63418,202.95916 C274.929974,184.27545 291,156.700657 291,125.872018 Z" id="Stroke-1"></path>
                    <path d="M98,96 C98,98.76 95.76,101 93,101 C90.24,101 88,98.76 88,96 C88,93.24 90.24,91 93,91 C95.76,91 98,93.24 98,96 Z" id="Stroke-3"></path>
                    <path d="M291,127 C309.163758,124.958716 327.916838,106.304518 326.517197,87.3467443 C325.254363,70.3883826 303.533624,73.6335012 304.533368,89.1786661 C304.933265,95.4804771 309.784651,100.683135 315.162218,104.043403 C320.550308,107.403671 326.664528,109.486828 332,112.909904" id="Stroke-5"></path>
                </g>
            </g>
        </g>
    </g>
</svg>