<?xml version="1.0" encoding="UTF-8"?>
<svg width="291px" height="291px" viewBox="0 0 291 291" version="1.1" xmlns="http://www.w3.org/2000/svg" xmlns:xlink="http://www.w3.org/1999/xlink">
    <!-- Generator: Sketch 52.3 (67297) - http://www.bohemiancoding.com/sketch -->
    <title>safety-smile</title>
    <desc>Created with Sketch.</desc>
    <g id="Welcome" stroke="none" stroke-width="1" fill="none" fill-rule="evenodd">
        <g id="Desktop" transform="translate(-923.000000, -6993.000000)" stroke="#231F20" stroke-width="5">
            <g id="Safety" transform="translate(-1.000000, 6832.000000)">
                <g id="safety-smile" transform="translate(927.000000, 164.000000)">
                    <path d="M0,142.5 C0,221.203561 63.8002224,285 142.497563,285 C221.199778,285 285,221.203561 285,142.5 C285,63.7964388 221.199778,0 142.497563,0 C63.8002224,0 0,63.7964388 0,142.5 Z" id="Stroke-1"></path>
                    <path d="M47,144 C47,195.357269 87.9663091,237 138.5,237 C189.038456,237 230,195.357269 230,144" id="Stroke-3"></path>
                    <path d="M124,109 C124,100.161032 117.061757,93 108.497779,93 C99.9382433,93 93,100.161032 93,109" id="Stroke-5"></path>
                    <path d="M191,109 C191,100.161032 184.061757,93 175.502221,93 C166.942685,93 160,100.161032 160,109" id="Stroke-7"></path>
                </g>
            </g>
        </g>
    </g>
</svg>